<svg width="583" height="99" viewBox="0 0 583 99" fill="currentColor" stroke="current" xmlns="http://www.w3.org/2000/svg">
<path d="M0.226562 79.5859C13.9609 78.5547 24.4844 76.9844 31.7969 74.875C32.125 72.7188 32.2891 70.2812 32.2891 67.5625C32.2891 64.7969 32.2188 62.2422 32.0781 59.8984L7.11719 50.8281C5.42969 50.2188 4.16406 49.1172 3.32031 47.5234C2.47656 45.8828 1.84375 43.75 1.42188 41.125C0.484375 35.3594 0.015625 30.9531 0.015625 27.9062C0.015625 23.0781 0.132812 19.5859 0.367188 17.4297C0.742188 13.5859 3.20312 10.9844 7.75 9.625C18.3906 5.78125 30.9062 2.61719 45.2969 0.132812L49.5859 17.0781L40.5859 18.3438C31.6797 19.6563 24.2734 21.0625 18.3672 22.5625C18.1797 23.7812 18.0859 25.375 18.0859 27.3438C18.0859 31.375 18.1797 34.5391 18.3672 36.8359L44.3125 48.2266C47.1719 49.4453 49.0938 51.5781 50.0781 54.625C50.3594 55.5156 50.5 56.1484 50.5 56.5234C50.5 56.8984 50.4531 57.7188 50.3594 58.9844C50.3125 60.2031 50.2188 61.8438 50.0781 63.9062C49.7031 69.4375 49.2344 74.1953 48.6719 78.1797C48.1094 82.1172 46.7266 84.8125 44.5234 86.2656C42.3672 87.6719 39.7188 88.9375 36.5781 90.0625C33.4844 91.1406 30.1328 92.125 26.5234 93.0156C20.6641 94.375 12.9062 95.7578 3.25 97.1641L0.226562 79.5859ZM68.4297 4.84375L85.5156 2.59375L86.9922 46.1875L114.203 45.2031L114.906 5.125L132.062 2.73438L132.203 41.2656L129.18 94L113.922 95.2656L113.781 60.7422L105.555 61.1641L86.8516 61.0234L85.6562 94L70.2578 95.2656L68.4297 4.84375ZM166.234 94.4219C164.266 93.9531 162.695 93.3203 161.523 92.5234C160.398 91.7266 159.367 90.1328 158.43 87.7422C157.539 85.3047 156.672 82.0938 155.828 78.1094C155.031 74.0781 154.352 69.8359 153.789 65.3828C152.711 56.8516 152.172 49.5156 152.172 43.375C152.172 32.7344 152.453 26.0312 153.016 23.2656C153.578 20.4531 154.164 18.2969 154.773 16.7969C155.383 15.2969 156.18 13.9609 157.164 12.7891C158.992 10.5391 161.523 8.82813 164.758 7.65625C167.992 6.48437 171.461 5.52344 175.164 4.77344C178.867 3.97656 182.805 3.32031 186.977 2.80469C195.273 1.77344 204.203 1.16406 213.766 0.976562L216.367 17.9922C199.633 18.6484 186.227 20.0312 176.148 22.1406C174.086 22.6094 172.375 23.1016 171.016 23.6172C170.453 26.8047 170.172 31.3281 170.172 37.1875C170.172 43.0469 170.242 47.5938 170.383 50.8281C170.523 54.0625 170.734 57.2969 171.016 60.5312C171.625 67.8438 172.586 74.0781 173.898 79.2344C174.555 79.3281 175.234 79.375 175.938 79.375C176.641 79.375 177.93 79.375 179.805 79.375C184.211 79.375 188.711 78.8359 193.305 77.7578C195.648 62.5234 196.82 45.6719 196.82 27.2031L214.328 28.3281C214.562 31.6094 214.68 34.4922 214.68 36.9766C214.68 39.4141 214.586 42.0391 214.398 44.8516C214.258 47.6172 214.047 50.4531 213.766 53.3594C213.484 56.2188 213.156 59.1016 212.781 62.0078C212.406 64.8672 212.031 67.6094 211.656 70.2344C211.281 72.8125 210.906 75.2031 210.531 77.4062L209.547 82.8906C208.75 86.7344 207.836 89.1719 206.805 90.2031C205.82 91.2344 204.859 91.9609 203.922 92.3828C203.031 92.7578 201.883 93.0859 200.477 93.3672C199.07 93.6484 197.523 93.8828 195.836 94.0703C194.195 94.3047 192.461 94.4922 190.633 94.6328C188.805 94.7734 187.047 94.8906 185.359 94.9844C182.547 95.0781 179.945 95.125 177.555 95.125C171.977 95.125 168.203 94.8906 166.234 94.4219ZM237.18 29.0312L255.18 26.1484V40.2812L254.617 59.8984C256.352 59.6172 257.992 59.3125 259.539 58.9844L264.109 57.8594C265.609 57.4844 267.086 57.0625 268.539 56.5938L273.18 54.9766C275.383 47.9922 276.484 39.4609 276.484 29.3828C276.484 25.6328 276.297 23.2656 275.922 22.2812C269.734 20.3125 258.438 19.0938 242.031 18.625C237.812 18.5313 233.898 18.4141 230.289 18.2734L232.961 1.67969C255.086 2.52344 271.281 4.16406 281.547 6.60156C283.188 7.02344 285.086 8.3125 287.242 10.4688C291.32 14.5469 293.523 17.8281 293.852 20.3125C294.227 22.75 294.414 26.2188 294.414 30.7188C294.414 35.1719 293.828 40.5156 292.656 46.75C291.484 52.9844 289.586 59.1719 286.961 65.3125C285.93 67.75 283.586 69.25 279.93 69.8125L255.039 74.2422L254.195 93.8594L238.445 95.4062L237.18 29.0312ZM313.258 29.0312L331.258 26.1484V40.2812L330.695 59.8984C332.43 59.6172 334.07 59.3125 335.617 58.9844L340.188 57.8594C341.688 57.4844 343.164 57.0625 344.617 56.5938L349.258 54.9766C351.461 47.9922 352.562 39.4609 352.562 29.3828C352.562 25.6328 352.375 23.2656 352 22.2812C345.812 20.3125 334.516 19.0938 318.109 18.625C313.891 18.5313 309.977 18.4141 306.367 18.2734L309.039 1.67969C331.164 2.52344 347.359 4.16406 357.625 6.60156C359.266 7.02344 361.164 8.3125 363.32 10.4688C367.398 14.5469 369.602 17.8281 369.93 20.3125C370.305 22.75 370.492 26.2188 370.492 30.7188C370.492 35.1719 369.906 40.5156 368.734 46.75C367.562 52.9844 365.664 59.1719 363.039 65.3125C362.008 67.75 359.664 69.25 356.008 69.8125L331.117 74.2422L330.273 93.8594L314.523 95.4062L313.258 29.0312ZM404.172 78.3203L438.273 83.4531L434.547 98.7812L423.93 97.375C408.32 95.2188 396.602 93.0859 388.773 90.9766L387.859 9.90625C404.406 5.6875 420.156 2.85156 435.109 1.39844L437.57 18.1328L403.891 22L404.594 43.0234L434.828 41.7578L433.703 58.2812L404.734 57.2969L404.172 78.3203ZM505.562 19.1172C500.078 19.3516 493.398 19.7734 485.523 20.3828L486.156 49.6328L484.539 94L468.859 95.2656L468.016 21.0156C463.938 21.1094 460.164 21.25 456.695 21.4375C453.273 21.625 450.367 21.7188 447.977 21.7188L449.242 6.46094C465.461 4.35156 483.625 3.29688 503.734 3.29688L505.562 19.1172ZM518.992 4.84375L536.078 2.59375L537.555 46.1875L564.766 45.2031L565.469 5.125L582.625 2.73438L582.766 41.2656L579.742 94L564.484 95.2656L564.344 60.7422L556.117 61.1641L537.414 61.0234L536.219 94L520.82 95.2656L518.992 4.84375Z"/>
</svg>
